<svg xmlns="http://www.w3.org/2000/svg" viewBox="0 0 64 64" role="img" aria-label="DistilledAI flask mark">
  <rect width="64" height="64" rx="16" fill="#0B1020"/>
  <path d="M24 10h16v7l-4 6v13l13 14c2 2.2.5 5.8-2.5 5.8h-29c-3 0-4.6-3.6-2.5-5.8l13-14V23l-4-6v-7Z" fill="#18D4D0" opacity=".95"/>
  <path d="M23 42h18l7 8.2c1 1.2.2 3.1-1.4 3.1H17.4c-1.6 0-2.4-1.9-1.4-3.1L23 42Z" fill="#F72585" opacity=".9"/>
  <path d="M24 10h16M27 21h10M24 42h18" stroke="#F4FBFF" stroke-width="3" stroke-linecap="round" opacity=".88"/>
</svg>
